<svg width="542" height="264" viewBox="0 0 542 264" fill="none" xmlns="http://www.w3.org/2000/svg">
<path d="M28.25 263.5L120.812 31.5H465.776L517.25 263.5H286.521H28.25Z" fill="#D0B59D"/>
<path d="M374.268 188V180.448C376.743 179.68 379.26 178.955 381.82 178.272C384.465 177.589 387.111 177.035 389.756 176.608L391.164 126.816H374.396V119.392L400.124 109.92H412.924V176.992L427.772 179.68V188H374.268Z" fill="#2C221A"/>
<path d="M322.518 188V180.448C324.993 179.68 327.51 178.955 330.07 178.272C332.715 177.589 335.361 177.035 338.006 176.608L339.414 126.816H322.646V119.392L348.374 109.92H361.174V176.992L376.022 179.68V188H322.518Z" fill="#2C221A"/>
<path d="M301.446 188.769C299.142 186.806 297.137 184.417 295.43 181.601C293.723 178.699 292.571 175.627 291.974 172.385C294.107 170.251 296.582 168.331 299.398 166.625C302.214 164.918 305.201 163.851 308.358 163.425C310.662 165.473 312.625 167.905 314.246 170.721C315.953 173.537 317.019 176.438 317.446 179.425C315.569 181.814 313.179 183.862 310.278 185.569C307.377 187.275 304.433 188.342 301.446 188.769Z" fill="#2C221A"/>
<path d="M248.292 189.537C244.281 189.537 240.015 189.195 235.492 188.513C230.969 187.83 226.361 186.806 221.668 185.441L225.124 170.465C229.817 171.659 234.169 172.598 238.18 173.281C242.276 173.963 245.988 174.305 249.316 174.305C253.497 174.305 257.38 173.793 260.964 172.769C261.476 171.659 261.817 170.593 261.988 169.569C262.244 168.459 262.372 167.435 262.372 166.497C262.372 162.913 261.263 160.139 259.044 158.177C256.911 156.129 253.711 155.105 249.444 155.105H223.972L231.524 140.129H252.26C262.415 140.129 270.095 142.049 275.3 145.889C280.591 149.643 283.236 155.233 283.236 162.657C283.236 171.019 280.121 177.59 273.892 182.369C267.748 187.147 259.215 189.537 248.292 189.537ZM241.508 185.825L221.668 185.441L222.308 162.017H231.396L241.508 185.825ZM223.972 155.105V110.561H239.844L238.948 148.577L223.972 155.105ZM275.172 126.049L231.524 124.897L223.972 110.561H275.172V126.049ZM269.924 135.905L258.916 110.561H279.268L279.012 135.905H269.924Z" fill="#2C221A"/>
<path d="M146.626 188V178.016C146.711 174.347 147.65 170.934 149.442 167.776C151.234 164.619 153.581 161.675 156.482 158.944C159.383 156.128 162.498 153.483 165.826 151.008C169.154 148.448 172.226 145.974 175.042 143.584C177.943 141.195 180.29 138.806 182.082 136.416C183.959 133.942 184.898 131.424 184.898 128.864C184.898 127.499 184.685 126.048 184.258 124.512C183.831 122.976 182.978 121.099 181.698 118.88L190.658 127.2C186.562 126.688 182.466 126.432 178.37 126.432C174.018 126.432 169.666 126.688 165.314 127.2C160.962 127.627 156.653 128.31 152.386 129.248L148.93 112.608C154.135 111.499 159.042 110.646 163.65 110.048C168.258 109.451 172.567 109.152 176.578 109.152C186.135 109.152 193.517 110.816 198.722 114.144C203.927 117.387 206.53 122.208 206.53 128.608C206.53 132.278 205.591 135.734 203.714 138.976C201.922 142.134 199.533 145.12 196.546 147.936C193.645 150.667 190.573 153.312 187.33 155.872C184.087 158.432 180.973 160.907 177.986 163.296C175.085 165.686 172.695 168.118 170.818 170.592C169.026 172.982 168.13 175.456 168.13 178.016V188H146.626ZM153.794 188V173.664L203.714 171.744L203.842 188H153.794ZM188.738 188L200.13 158.56H209.474L209.218 188H188.738ZM148.93 143.2V112.608L168.77 112.352L158.146 143.2H148.93Z" fill="#2C221A"/>
<path d="M0 102L102.595 31H484.947L542 102H286.264H0Z" fill="#FBE7D6"/>
<path d="M133.98 43.5C133.98 47 117.48 9.50003 140.48 9.5C163.48 9.49997 149.98 15 149.98 29.9999" stroke="#535353" stroke-width="19"/>
<path d="M195.21 46C195.21 49.5 178.709 12 201.709 12C224.709 12 211.21 17.5 211.21 32.4999" stroke="#535353" stroke-width="19"/>
<path d="M256.21 44C256.21 47.5 239.709 10 262.709 10C285.709 9.99997 272.21 15.5 272.21 30.4999" stroke="#535353" stroke-width="19"/>
<path d="M317.21 46C317.21 49.5 300.709 12 323.709 12C346.709 12 333.21 17.5 333.21 32.4999" stroke="#535353" stroke-width="19"/>
<path d="M378.21 44C378.21 47.5 361.709 10 384.709 10C407.709 9.99997 394.21 15.5 394.21 30.4999" stroke="#535353" stroke-width="19"/>
<path d="M439.21 44C439.21 47.5 422.709 10 445.709 10C468.709 9.99997 455.21 15.5 455.21 30.4999" stroke="#535353" stroke-width="19"/>
<path d="M415.306 85.5C409.503 85.5 404.298 85.3006 399.69 84.9019C395.082 84.5032 391.455 83.9525 388.81 83.25C386.165 82.5475 384.842 81.7595 384.842 80.8861C384.842 79.8228 386.719 78.8829 390.474 78.0665C394.229 77.25 399.263 76.6709 405.578 76.3291L410.314 76.9842C407.754 77.5348 405.791 78.0759 404.426 78.6076C403.061 79.1203 402.378 79.6424 402.378 80.174C402.378 80.8956 403.701 81.4557 406.346 81.8544C409.077 82.2532 412.789 82.4525 417.482 82.4525C420.127 82.4525 423.029 82.3956 426.186 82.2816C427.21 82.0728 427.978 81.8639 428.49 81.6551C429.087 81.4272 429.386 81.2089 429.386 81C429.386 80.5633 428.362 80.1835 426.314 79.8608C424.266 79.538 421.621 79.2342 418.378 78.9494C415.135 78.6456 411.679 78.3228 408.01 77.981C404.341 77.6392 400.885 77.2405 397.642 76.7848C394.399 76.3101 391.754 75.75 389.706 75.1044C387.658 74.4399 386.634 73.6329 386.634 72.6835C386.634 71.6582 387.957 70.7563 390.602 69.9778C393.247 69.1994 396.917 68.5918 401.61 68.1551C406.303 67.7184 411.722 67.5 417.866 67.5C423.413 67.5 428.277 67.6804 432.458 68.0411C436.639 68.4019 439.925 68.9146 442.314 69.5791C444.703 70.2247 445.898 70.9937 445.898 71.8861C445.898 72.9684 444.106 73.9272 440.522 74.7627C436.938 75.5791 431.903 76.1772 425.418 76.557L420.682 75.9019C423.413 75.2943 425.418 74.7247 426.698 74.193C427.978 73.6614 428.618 73.1203 428.618 72.5696C428.618 71.8671 427.637 71.3449 425.674 71.0032C423.711 70.6614 420.81 70.4905 416.97 70.4905C415.775 70.4905 414.495 70.5 413.13 70.519C411.85 70.538 410.442 70.5854 408.906 70.6614C408.138 70.8133 407.498 70.9937 406.986 71.2025C406.474 71.4114 406.218 71.6297 406.218 71.8576C406.218 72.3323 407.242 72.75 409.29 73.1108C411.338 73.4525 413.983 73.7848 417.226 74.1076C420.469 74.4304 423.882 74.7627 427.466 75.1044C431.05 75.4272 434.463 75.8165 437.706 76.2722C440.949 76.7089 443.594 77.25 445.642 77.8956C447.69 78.5222 448.714 79.2816 448.714 80.174C448.714 81.1804 447.263 82.0918 444.362 82.9082C441.461 83.7057 437.493 84.3418 432.458 84.8165C427.423 85.2722 421.706 85.5 415.306 85.5Z" fill="#2C221A"/>
<path d="M341.006 85.4712C333.923 85.4712 327.779 85.1199 322.574 84.4174C317.454 83.7149 313.529 82.7085 310.798 81.3984C308.153 80.0883 306.83 78.5313 306.83 76.7275C306.83 74.8288 308.281 73.1959 311.182 71.8288C314.083 70.4617 318.222 69.4079 323.598 68.6674C328.974 67.9269 335.331 67.5566 342.67 67.5566C349.923 67.5566 356.11 67.8984 361.23 68.582C366.435 69.2655 370.403 70.2528 373.134 71.544C375.865 72.8161 377.23 74.3446 377.23 76.1294C377.23 78.0661 375.779 79.737 372.878 81.1421C370.062 82.5282 365.923 83.6009 360.462 84.3604C355.086 85.1009 348.601 85.4712 341.006 85.4712ZM342.286 82.5092C345.102 82.5092 347.406 82.2908 349.198 81.8541C351.075 81.3984 352.483 80.7244 353.422 79.832C354.361 78.9396 354.83 77.8193 354.83 76.4712C354.83 75.1611 354.318 74.0788 353.294 73.2244C352.355 72.3699 350.862 71.7339 348.814 71.3161C346.851 70.8794 344.334 70.6611 341.262 70.6611C339.982 70.6611 338.617 70.7085 337.166 70.8035C335.801 70.8984 334.478 71.0503 333.198 71.2592C332.003 72.0946 331.065 72.9585 330.382 73.8509C329.785 74.7244 329.486 75.6452 329.486 76.6136C329.486 77.9237 329.955 79.0155 330.894 79.8889C331.833 80.7623 333.241 81.4174 335.118 81.8541C336.995 82.2908 339.385 82.5092 342.286 82.5092Z" fill="#2C221A"/>
<path d="M283.07 85.3004C280.766 84.8637 278.761 84.332 277.054 83.7054C275.347 83.0599 274.195 82.3763 273.598 81.6548C275.731 81.1801 278.206 80.7529 281.022 80.3732C283.838 79.9934 286.825 79.7561 289.982 79.6611C292.286 80.1168 294.249 80.658 295.87 81.2846C297.577 81.9111 298.643 82.5567 299.07 83.2213C297.193 83.7529 294.803 84.2086 291.902 84.5883C289.001 84.9681 286.057 85.2054 283.07 85.3004Z" fill="#2C221A"/>
<path d="M229.916 85.4712C225.905 85.4712 221.639 85.3953 217.116 85.2434C212.593 85.0915 207.985 84.8636 203.292 84.5598L206.748 81.2276C211.441 81.4934 215.793 81.7022 219.804 81.8541C223.9 82.006 227.612 82.082 230.94 82.082C235.121 82.082 239.004 81.9681 242.588 81.7402C243.1 81.4934 243.441 81.256 243.612 81.0282C243.868 80.7813 243.996 80.5535 243.996 80.3446C243.996 79.5472 242.887 78.9301 240.668 78.4934C238.535 78.0377 235.335 77.8098 231.068 77.8098H205.596L213.148 74.4776H233.884C244.039 74.4776 251.719 74.9048 256.924 75.7592C262.215 76.5946 264.86 77.8383 264.86 79.4902C264.86 81.351 261.745 82.813 255.516 83.8763C249.372 84.9396 240.839 85.4712 229.916 85.4712ZM223.132 84.6453L203.292 84.5598L203.932 79.3478H213.02L223.132 84.6453ZM205.596 77.8098V67.8984H221.468L220.572 76.3573L205.596 77.8098ZM256.796 71.3446L213.148 71.0883L205.596 67.8984H256.796V71.3446ZM251.548 73.5377L240.54 67.8984H260.892L260.636 73.5377H251.548Z" fill="#2C221A"/>
<path d="M128.25 85.1293V82.9077C128.335 82.0913 129.274 81.3318 131.066 80.6293C132.858 79.9267 135.205 79.2717 138.106 78.6641C141.007 78.0375 144.122 77.4489 147.45 76.8983C150.778 76.3286 153.85 75.778 156.666 75.2464C159.567 74.7147 161.914 74.1831 163.706 73.6514C165.583 73.1008 166.522 72.5407 166.522 71.971C166.522 71.6672 166.309 71.3445 165.882 71.0027C165.455 70.6609 164.602 70.2432 163.322 69.7495L172.282 71.6008C168.186 71.4869 164.09 71.4299 159.994 71.4299C155.642 71.4299 151.29 71.4869 146.938 71.6008C142.586 71.6957 138.277 71.8476 134.01 72.0565L130.554 68.3539C135.759 68.1071 140.666 67.9172 145.274 67.7843C149.882 67.6514 154.191 67.585 158.202 67.585C167.759 67.585 175.141 67.9552 180.346 68.6957C185.551 69.4172 188.154 70.49 188.154 71.9141C188.154 72.7305 187.215 73.4995 185.338 74.221C183.546 74.9236 181.157 75.5881 178.17 76.2147C175.269 76.8223 172.197 77.4109 168.954 77.9805C165.711 78.5501 162.597 79.1008 159.61 79.6324C156.709 80.1641 154.319 80.7052 152.442 81.2558C150.65 81.7875 149.754 82.3381 149.754 82.9077V85.1293H128.25ZM135.418 85.1293V81.9394L185.338 81.5122L185.466 85.1293H135.418ZM170.362 85.1293L181.754 78.5786H191.098L190.842 85.1293H170.362ZM130.554 75.1609V68.3539L150.394 68.297L139.77 75.1609H130.554Z" fill="#2C221A"/>
</svg>
