<svg width="524" height="409" viewBox="0 0 524 409" fill="none" xmlns="http://www.w3.org/2000/svg">
<path d="M179.541 298.931C215.996 273.413 219.186 271.59 274.78 228.755" stroke="#FFECC1" stroke-width="5.46825"/>
<path d="M320.804 174.984L274.163 220.336M274.163 220.336L257.143 232.773M274.163 220.336V250.896M274.163 220.336L294.729 242.012M480.295 174.984L503.535 220.336M502.623 242.012L503.535 220.336M503.535 220.336L480.295 242.012M503.535 220.336C507.636 224.198 512.649 231.489 520.395 242.012M357.715 257.919V390.069M357.715 390.069H386.423M357.715 390.069L386.423 376.854M357.715 390.069L386.423 405.106M430.625 267.944L428.346 390.069M428.346 390.069H457.966M428.346 390.069L457.966 375.487M428.346 390.069L457.966 405.106" stroke="#68513C" stroke-width="7.29101"/>
<path d="M190.712 294.83H-66.5305L-20.4679 375.031H133.665L190.712 294.83Z" fill="#68513C"/>
<path d="M441.677 274.208H360.89L323.331 232.049L309.867 127.184L323.331 103.448L333.607 80.7744L309.867 62.3522L323.331 28.3419L348.489 53.4953L360.89 93.174L410.851 80.7744L390.654 53.4953L398.449 0L410.851 28.3419L451.953 80.7744L493.055 40.7415L483.842 93.174V192.016L441.677 274.208Z" fill="#68513C"/>
<path d="M379.135 126.681L336.298 167.923H397.544L379.135 126.681Z" fill="#FFECC1"/>
<path d="M453.48 126.681L420.202 167.923H471.181L453.48 126.681Z" fill="#FFECC1"/>
<path d="M381.967 193.521L343.024 184.988L381.967 213.075L439.319 217.341L457.02 189.254L411.351 184.988L381.967 193.521Z" fill="#FFECC1"/>
<circle cx="-11.3922" cy="375.031" r="25.0628" fill="#FFECC1"/>
<circle cx="131.694" cy="375.031" r="25.0628" fill="#FFECC1"/>
</svg>
